<svg id="ЛОГОТИП" xmlns="http://www.w3.org/2000/svg" viewBox="0 0 251.17 120.45"><defs><style>.cls-1,.cls-12,.cls-3{fill:none;}.cls-1{stroke:#ffd014;}.cls-1,.cls-12{stroke-miterlimit:10;}.cls-2,.cls-4{fill:#ffd014;}.cls-4{font-size:41px;font-family:Montserrat-Bold, Montserrat;font-weight:700;letter-spacing:0.09em;}.cls-5{letter-spacing:0.11em;}.cls-6{letter-spacing:0.06em;}.cls-7{letter-spacing:0.09em;}.cls-8{letter-spacing:0.1em;}.cls-9{letter-spacing:0.08em;}.cls-10{letter-spacing:0.1em;}.cls-11{fill:#fff;}.cls-12{stroke:#fff;}</style></defs><title>LogoPlayNow</title><g id="Иконка"><g id="полукруг"><path class="cls-1" d="M114,62.65A4.31,4.31,0,0,1,118.27,67" transform="translate(-0.25 -16.33)"/><path class="cls-1" d="M114,62.65A4.31,4.31,0,0,0,109.65,67" transform="translate(-0.25 -16.33)"/></g><path class="cls-2" d="M152.41,40.5H141.82c0,.15,0,.31-.08.46a.43.43,0,0,1,0,.11c0,.11,0,.22-.07.33A7.44,7.44,0,0,1,134,47.59h-.21a7.4,7.4,0,0,1-.83,0l-.35-.05-.61-.11-.13,0h0l-.23-.06a1.15,1.15,0,0,1-.17-.06l-.27-.08-.57-.22-.09,0a7.3,7.3,0,0,1-1.48-.9h0l-.26-.21h0a7.55,7.55,0,0,1-.79-.81h0l-.12-.16a4.13,4.13,0,0,1-.31-.42h0l0,0a9.34,9.34,0,0,1-.5-.87v0a7.93,7.93,0,0,1-.66-1.9h0c0-.13,0-.26-.07-.4l-.06-.36c0-.08,0-.16,0-.24h-8.33a9.15,9.15,0,0,1-.46,2.21,8.76,8.76,0,0,1-.62,1.4c-.06.12-.13.23-.2.35s-.16.27-.25.39a8.2,8.2,0,0,1-.58.74l-.13.14A7.5,7.5,0,0,1,110,48a8.13,8.13,0,0,1-3.43-.71,6.89,6.89,0,0,1-2.17-1.5l0,0a8,8,0,0,1-.61-.7l0,0a7.59,7.59,0,0,1-1-1.66l0,0c-.11-.28-.21-.56-.29-.84,0,0,0-.07,0-.11a9.22,9.22,0,0,1-.32-1.89H99.32a4.9,4.9,0,0,0-4.9,4.91V57.66a4.9,4.9,0,0,0,4.9,4.9h53.09a4.9,4.9,0,0,0,4.9-4.9V45.41A4.9,4.9,0,0,0,152.41,40.5Z" transform="translate(-0.25 -16.33)"/><g id="полукруг-2" data-name="полукруг"><path class="cls-1" d="M137.83,62.65A4.32,4.32,0,0,1,142.15,67" transform="translate(-0.25 -16.33)"/><path class="cls-1" d="M137.84,62.65A4.32,4.32,0,0,0,133.52,67" transform="translate(-0.25 -16.33)"/></g><path class="cls-2" d="M125.83,16.33A31.91,31.91,0,0,0,94.08,48.08h63.5A31.9,31.9,0,0,0,125.83,16.33Zm-8.4,26.44a8.55,8.55,0,0,1-.62,1.38,2.75,2.75,0,0,1-.17.29c-.09.15-.18.3-.28.45s-.37.48-.57.71l-.16.16A7.46,7.46,0,0,1,110,48a8.45,8.45,0,0,1-2.7-.43h0l-.31-.12h0a3.43,3.43,0,0,1-.48-.19h0a6.46,6.46,0,0,1-.9-.49l-.21-.14a5.78,5.78,0,0,1-.67-.53l-.11-.09a7.21,7.21,0,0,1-.66-.7l-.14-.18a7.66,7.66,0,0,1-.45-.66,1.63,1.63,0,0,1-.11-.17,8.62,8.62,0,0,1-.43-.86,1.11,1.11,0,0,1-.07-.16c-.1-.26-.19-.51-.27-.78l-.06-.21a8.24,8.24,0,0,1-.21-1,.22.22,0,0,1,0-.08,9,9,0,0,1-.09-.91c0-.07,0-.15,0-.22a9.4,9.4,0,0,1,.16-2c0-.06,0-.13,0-.2a8.37,8.37,0,0,1,.23-.86l0-.1a7.36,7.36,0,0,1,.37-.92c0-.06,0-.1.07-.15a8.2,8.2,0,0,1,.43-.76l.08-.13a7.9,7.9,0,0,1,.61-.79l.07-.08a6.35,6.35,0,0,1,.65-.62s.09-.09.15-.13a7.4,7.4,0,0,1,.84-.59h0a7.81,7.81,0,0,1,4.25-1.16C116.67,31.66,119.1,38,117.43,42.77Zm24.32-1.88,0,.2c0,.11,0,.21-.07.32a7.4,7.4,0,0,1-6.29,6.08l-.13,0a9,9,0,0,1-1.19.08h-.17a7,7,0,0,1-.92-.06l-.51-.07-.44-.1a5.26,5.26,0,0,1-.6-.15l-.08,0a7.51,7.51,0,0,1-5-6.13l0-.17c0-.14,0-.28,0-.42s0-.35,0-.53v-.16a8.45,8.45,0,0,1,2.52-6.51c.13-.12.28-.23.42-.34l.15-.13a7.71,7.71,0,0,1,4.79-1.54C140,31.24,142.52,36.4,141.75,40.89Z" transform="translate(-0.25 -16.33)"/><path class="cls-2" d="M141.69,47.38v6.29a4.79,4.79,0,0,0-2.94-.92,5.37,5.37,0,0,0-1.09.11,4.92,4.92,0,0,0-3.74,1V47.59h-.06a8.23,8.23,0,0,1-1.14-.09h-.09l-.19,0h-.07a9.54,9.54,0,0,1-1-.25l-.12,0h0a3.49,3.49,0,0,1-.34-.15l-.46-.2-.25-.1-.12-.07h0l-.17-.11,0,0a5,5,0,0,1-.72-.47h-11.4v8.69a3.68,3.68,0,0,0-.44.23,4.52,4.52,0,0,0-4.08-2.21,4.72,4.72,0,0,0-3.09,1V48H94.06V66.84h0c0,7.4,2.81,11.37,8,11.37s8-4,8-11.37h0V64.27a5.93,5.93,0,0,0,.94-.73l.12-.13a3.76,3.76,0,0,0,.67-.83,5.33,5.33,0,0,0,1.36.17,5.17,5.17,0,0,0,2.12-.43,4.49,4.49,0,0,0,2.4,2.43v2.33h0c0,7.44,2.83,11.42,8.13,11.42s8.12-4,8.12-11.42h-.08v-2.6a4.38,4.38,0,0,0,1.92-1.79,5.36,5.36,0,0,0,1.16.12,5,5,0,0,0,1.05-.11,5.36,5.36,0,0,0,.7,0,5.47,5.47,0,0,0,1.1-.11,4.32,4.32,0,0,0,1.84,1.61v3h0c0,7.43,2.78,11.42,8,11.42s8-4,8-11.39h0V47.38Z" transform="translate(-0.25 -16.33)"/><path class="cls-2" d="M111.42,47.9A10,10,0,0,1,110,48h-.25v7.92h8.56v-8Z" transform="translate(-0.25 -16.33)"/><rect class="cls-3" x="133.29" y="31.38" width="8.56" height="8.02"/></g><text class="cls-4" transform="translate(0 109.54) scale(0.99 1)">P<tspan class="cls-5" x="33.7" y="0">L</tspan><tspan class="cls-6" x="62.81" y="0">A</tspan><tspan class="cls-7" x="96.55" y="0">Y</tspan><tspan class="cls-8" x="128.08" y="0">N</tspan><tspan class="cls-9" x="165.31" y="0">O</tspan><tspan class="cls-10" x="203.07" y="0">W</tspan></text><path class="cls-11" d="M117.67,37.54a9.32,9.32,0,0,1,.11,3.83l-.06.28a4,4,0,0,1-.1.5,7.67,7.67,0,0,0,0-4.61Z" transform="translate(-0.25 -16.33)"/><rect class="cls-2" x="97.17" y="23.82" width="12.5" height="13.67"/><path class="cls-12" d="M128.5,52.75" transform="translate(-0.25 -16.33)"/><rect class="cls-2" x="120.4" y="23.67" width="12.5" height="13.67"/></svg>